<svg xmlns="http://www.w3.org/2000/svg" width="63.011" height="63" viewBox="1034.596 84 63.011 63"><g data-name="icon 3"><g data-name="Grupo 1" transform="translate(1034.596 84)" clip-path="url(&quot;#a&quot;)"><path d="M63.011 41.342c-.245.42-.421.906-.75 1.244-.701.721-1.595.915-2.547.566-.948-.348-1.479-1.067-1.604-2.07-.033-.262-.02-.532-.02-.798V15.062c-.001-2.107-.86-3.738-2.777-4.688a5.142 5.142 0 0 0-1.88-.494c-1.12-.079-2.249-.022-3.468-.022 0 .843.03 1.675-.006 2.505-.082 1.927-2.134 3.026-3.747 2.016-.773-.484-1.145-1.21-1.159-2.113-.012-.778-.002-1.556-.002-2.38H33.853c0 .725.004 1.455 0 2.185-.012 1.573-1.007 2.67-2.432 2.687-1.45.017-2.477-1.093-2.488-2.692-.005-.715-.001-1.43-.001-2.185H17.859c0 .742.005 1.473 0 2.205-.013 1.566-1.021 2.664-2.447 2.672-1.428.008-2.458-1.09-2.473-2.645-.006-.734 0-1.468 0-2.341-1.456.076-2.891-.016-4.252.26-2.261.46-3.687 2.42-3.742 4.79-.017.737-.004 1.476-.004 2.214 0 11.914.002 23.827-.002 35.74 0 2.13.815 3.81 2.767 4.752.695.335 1.531.526 2.303.527 14.33.03 28.66.029 42.991.017 2.85-.002 4.871-1.926 5.075-4.781.052-.725.233-1.374.759-1.89 1.203-1.182 3.202-.82 3.932.706.088.183.164.371.245.556v1.6c-.037.091-.095.18-.11.274-.558 3.46-2.413 5.984-5.56 7.494-.956.458-2.04.653-3.065.969H8.756c-.072-.035-.14-.092-.214-.101C3.914 62.336-.027 58.205 0 52.78.063 40.234.016 27.687.03 15.14c0-.774.05-1.563.205-2.32.94-4.593 4.834-7.807 9.529-7.897 1.039-.02 2.078-.002 3.179-.002 0-.878-.025-1.694.005-2.507.064-1.697 1.65-2.806 3.235-2.282.992.327 1.647 1.227 1.672 2.34.018.81.003 1.62.003 2.411h11.075c0-.767-.005-1.5.001-2.234.015-1.556 1.04-2.654 2.468-2.649 1.426.005 2.438 1.103 2.451 2.666.006.732.001 1.465.001 2.214H45.05c0-.751-.004-1.465 0-2.18.01-1.602 1.03-2.711 2.48-2.7 1.424.011 2.428 1.11 2.44 2.676.006.732.001 1.463.001 2.25 1.213 0 2.36-.052 3.5.01 3.887.213 6.763 2.066 8.516 5.533.497.983.692 2.12 1.025 3.186v27.687Z" fill="#fff" fill-rule="evenodd" data-name="Caminho 1"/><path d="M36.889 39.004c.532 0 1.065.008 1.598-.003.768-.014 1.066-.23 1.31-.955.312-.93.61-1.866.92-2.799.266-.807.638-1.15 1.242-1.158.61-.007 1 .34 1.263 1.132.308.932.607 1.867.92 2.799.253.757.548.974 1.351.981 1.045.01 2.09-.002 3.136.005.76.004 1.177.279 1.383.885.2.59.029 1.09-.571 1.545-.8.607-1.616 1.191-2.42 1.792-.762.568-.88.942-.586 1.855.302.934.62 1.863.919 2.799.234.735.102 1.248-.394 1.59-.561.388-1.08.241-1.585-.13a303.11 303.11 0 0 0-2.39-1.729c-.829-.594-1.203-.59-2.045.015a418.46 418.46 0 0 0-2.39 1.73c-.51.372-1.036.501-1.583.097-.542-.4-.59-.94-.389-1.54.305-.912.602-1.827.9-2.741.336-1.035.235-1.362-.622-1.999-.756-.562-1.519-1.116-2.272-1.681-.646-.485-.844-.977-.656-1.573.203-.644.636-.912 1.485-.916.492-.003.984 0 1.476-.001" fill="#fff" fill-rule="evenodd" data-name="Caminho 2"/><path d="M17.855 25.856a2.47 2.47 0 0 1-2.49 2.438 2.47 2.47 0 0 1-2.422-2.506 2.47 2.47 0 0 1 2.459-2.407 2.469 2.469 0 0 1 2.453 2.475" fill="#fff" fill-rule="evenodd" data-name="Caminho 3"/><path d="M28.559 25.858a2.47 2.47 0 0 1-2.493 2.436 2.47 2.47 0 0 1-2.42-2.508 2.47 2.47 0 0 1 2.462-2.405 2.469 2.469 0 0 1 2.45 2.477" fill="#fff" fill-rule="evenodd" data-name="Caminho 4"/><path d="M36.8 28.294a2.469 2.469 0 0 1-2.45-2.478 2.47 2.47 0 0 1 2.492-2.435 2.47 2.47 0 0 1 2.42 2.447 2.469 2.469 0 0 1-2.462 2.466" fill="#fff" fill-rule="evenodd" data-name="Caminho 5"/><path d="M47.513 28.294a2.469 2.469 0 0 1-2.46-2.469 2.47 2.47 0 0 1 2.484-2.444 2.47 2.47 0 0 1 2.429 2.438 2.469 2.469 0 0 1-2.453 2.475" fill="#fff" fill-rule="evenodd" data-name="Caminho 6"/><path d="M17.855 36.542A2.47 2.47 0 0 1 15.384 39a2.47 2.47 0 0 1-2.441-2.487 2.47 2.47 0 0 1 2.44-2.427 2.47 2.47 0 0 1 2.472 2.456" fill="#fff" fill-rule="evenodd" data-name="Caminho 7"/><path d="M26.123 34.086a2.47 2.47 0 0 1 2.436 2.494A2.47 2.47 0 0 1 26.05 39a2.47 2.47 0 0 1-2.405-2.462 2.469 2.469 0 0 1 2.477-2.452" fill="#fff" fill-rule="evenodd" data-name="Caminho 8"/><path d="M15.41 49.706a2.469 2.469 0 0 1-2.467-2.46 2.469 2.469 0 0 1 2.474-2.454 2.47 2.47 0 0 1 2.438 2.43 2.47 2.47 0 0 1-2.444 2.484" fill="#fff" fill-rule="evenodd" data-name="Caminho 9"/><path d="M28.559 47.259a2.469 2.469 0 0 1-2.482 2.447 2.47 2.47 0 0 1-2.43-2.498 2.47 2.47 0 0 1 2.45-2.416 2.469 2.469 0 0 1 2.462 2.467" fill="#fff" fill-rule="evenodd" data-name="Caminho 10"/></g></g><defs><clipPath id="a"><path d="M0 0h63.011v63H0V0z" data-name="Retângulo 4"/></clipPath></defs></svg>