<svg xmlns="http://www.w3.org/2000/svg" width="44.06" height="50.349"><g fill="#2faaa8" fill-rule="evenodd" clip-path="url(&quot;#a&quot;)" data-name="Grupo 3"><path d="M38.597 35.14c1.553 2.667 3.072 5.272 4.586 7.88.116.201.242.417.277.64.102.644-.513 1.077-1.24.884-2.13-.566-4.256-1.14-6.383-1.71-.121-.031-.245-.053-.434-.095-.156.558-.315 1.104-.462 1.653-.45 1.674-.897 3.349-1.34 5.025-.122.462-.303.875-.845.928-.515.05-.763-.311-.99-.705a782.353 782.353 0 0 0-4.042-6.991c-.125-.213-.394-.382-.634-.481-.665-.274-1.357-.484-2.026-.75-.586-.235-1.153-.516-1.733-.766-.858-.37-1.718-.367-2.578.004-1.01.437-1.99.995-3.044 1.267-.922.238-1.402.74-1.831 1.523-1.146 2.09-2.37 4.139-3.557 6.207-.227.395-.482.755-.997.688-.529-.068-.707-.47-.831-.942-.579-2.198-1.178-4.391-1.782-6.633-.153.023-.29.03-.42.064-2.112.562-4.223 1.121-6.33 1.698-.435.118-.828.144-1.136-.234-.328-.401-.201-.798.034-1.203 1.433-2.468 2.858-4.942 4.285-7.414.098-.17.19-.344.306-.555-1.871-.995-2.028-2.67-1.816-4.491.08-.683.148-1.366.234-2.048.132-1.052-.146-1.959-.884-2.736a38.068 38.068 0 0 1-1.811-2.018c-1.565-1.901-1.564-3.521.003-5.411a34.132 34.132 0 0 1 1.78-1.972c.811-.835 1.039-1.817.898-2.943-.127-1.021-.256-2.048-.275-3.075-.034-1.841.81-3.017 2.574-3.56 1.066-.328 2.173-.533 3.268-.756 1.009-.206 1.73-.753 2.235-1.64.554-.973 1.091-1.961 1.726-2.88.923-1.336 2.212-1.88 3.824-1.444.502.136.99.338 1.472.54.65.27 1.289.566 1.929.86.943.432 1.883.442 2.83.01.541-.246 1.089-.48 1.634-.722.28-.124.556-.26.84-.375 2.308-.927 3.79-.463 5.134 1.643.495.776.934 1.588 1.383 2.393.488.876 1.21 1.403 2.195 1.606 1.06.218 2.13.417 3.164.73 1.934.586 2.744 1.712 2.696 3.735-.026 1.082-.166 2.161-.278 3.24-.099.954.14 1.783.793 2.497.66.72 1.336 1.428 1.946 2.188 1.49 1.859 1.484 3.433.003 5.295-.416.523-.846 1.048-1.345 1.487-1.304 1.15-1.649 2.558-1.323 4.216.128.653.16 1.328.202 1.994.099 1.564-.365 2.858-1.884 3.656M5.583 14.016c.115 1.525-.548 2.73-1.546 3.802-.554.596-1.125 1.178-1.637 1.81-.944 1.164-.946 1.884-.001 3.041.57.7 1.197 1.354 1.81 2.017 1.043 1.127 1.503 2.439 1.343 3.974-.112 1.078-.233 2.158-.262 3.24-.029 1.065.31 1.524 1.33 1.837.807.25 1.641.439 2.477.568 1.987.306 3.448 1.3 4.337 3.12.22.455.477.893.74 1.325.224.37.463.733.725 1.077.496.65 1.16.864 1.924.582.845-.313 1.691-.638 2.493-1.045 1.793-.91 3.56-.933 5.352-.02.627.318 1.27.609 1.923.87 1.456.584 2.109.374 2.958-.958.378-.593.736-1.204 1.045-1.836.913-1.866 2.424-2.83 4.448-3.132.888-.132 1.764-.378 2.623-.644.713-.22 1.09-.778 1.067-1.528-.024-.847-.047-1.702-.182-2.536-.33-2.048.068-3.84 1.628-5.298.356-.332.679-.702.999-1.07.272-.314.533-.639.771-.978.504-.717.505-1.452-.001-2.167-.26-.367-.549-.717-.846-1.056-.453-.517-.926-1.016-1.388-1.524-.994-1.095-1.387-2.38-1.236-3.848.107-1.042.232-2.086.265-3.131.038-1.171-.318-1.644-1.44-1.985a14.075 14.075 0 0 0-2.163-.483c-2.156-.297-3.72-1.366-4.657-3.355-.299-.634-.673-1.239-1.065-1.822-.76-1.131-1.365-1.33-2.628-.844-.841.324-1.658.713-2.476 1.092-1.539.713-3.067.713-4.605-.003-.785-.366-1.57-.737-2.375-1.053-1.37-.537-1.97-.331-2.794.897-.191.285-.359.585-.531.882-.364.623-.713 1.257-1.09 1.873-.643 1.053-1.572 1.735-2.771 2.02-1.019.24-2.053.418-3.067.676-1.492.379-1.878.897-1.793 2.43.06 1.063.195 2.122.296 3.183m9.141 27.911c-1.193-.706-1.822-1.846-2.45-2.987-.21-.38-.437-.75-.639-1.132-.488-.925-1.245-1.471-2.271-1.664-.603-.113-1.207-.225-1.8-.382-.347-.092-.512.012-.682.312-1.114 1.961-2.249 3.91-3.374 5.866-.063.11-.103.234-.185.422 1.843-.494 3.6-.966 5.356-1.433.98-.261 1.272-.094 1.53.87.431 1.601.858 3.205 1.289 4.807.047.174.109.345.194.612l3.032-5.291m14.568.024 3.063 5.29 1.477-5.496c.236-.877.554-1.068 1.414-.837 1.569.422 3.136.85 4.705 1.273.227.061.458.11.797.192-1.277-2.215-2.481-4.313-3.706-6.399-.068-.116-.315-.2-.465-.181-.501.06-.994.187-1.494.261-1.331.198-2.31.865-2.892 2.098-.185.391-.423.757-.631 1.137-.57 1.037-1.194 2.028-2.268 2.662" data-name="Caminho 7"/><path d="M22.012 34.665c-7.453-.002-13.53-6.068-13.536-13.513-.007-7.463 6.098-13.558 13.567-13.544 7.444.014 13.52 6.107 13.51 13.547-.01 7.448-6.088 13.512-13.54 13.51m-.02-1.75c6.523.01 11.823-5.268 11.823-11.772 0-6.477-5.281-11.778-11.754-11.798-6.512-.021-11.823 5.247-11.85 11.753-.027 6.494 5.27 11.806 11.781 11.816" data-name="Caminho 8"/><path d="M20.128 24.603c.177-.169.322-.301.46-.44l8.052-8.05c.14-.14.276-.296.443-.397.387-.234.772-.192 1.082.14.292.312.313.685.087 1.046-.104.166-.254.305-.394.445-2.948 2.957-5.896 5.913-8.846 8.868-.676.677-1.048.673-1.729-.007l-5.138-5.138c-.076-.077-.157-.15-.229-.23-.346-.391-.364-.88-.047-1.222.341-.368.85-.394 1.254-.006.795.763 1.567 1.55 2.347 2.33.879.878 1.756 1.758 2.658 2.66" data-name="Caminho 9"/></g><defs><clipPath id="a"><path d="M0 0h44.06v50.35H0V0z" data-name="Retângulo 5"/></clipPath></defs></svg>