<svg xmlns="http://www.w3.org/2000/svg" width="43.5" height="43.62"><g fill="#2faaa8" fill-rule="evenodd" clip-path="url(&quot;#a&quot;)" data-name="Grupo 6"><path d="M28.82 6.3c.2.12.37.19.49.31l12.23 12.25c2.62 2.63 2.61 6.1-.01 8.73L32.13 37c-.13.12-.28.21-.45.35.62.44 1.21.6 1.84.63.53.03.83.29.83.71s-.3.68-.83.7a3.52 3.52 0 0 0-3.37 3.4c-.03.53-.3.83-.73.82-.4 0-.66-.3-.68-.8a3.66 3.66 0 0 0-.68-1.96c-.12.21-.2.4-.33.54a4.92 4.92 0 0 1-7.14-.02c-1.62-1.6-3.23-3.23-4.84-4.85-.1-.1-.18-.23-.27-.36l-7.25 7.28-1.09-1.13c.12-.08.28-.14.4-.26l9.74-9.76a7.89 7.89 0 0 1 3.07-1.98c.97-.33 1.8-.89 2.52-1.62l5.92-5.94c.08-.09.17-.16.25-.26.24-.3.23-.7-.02-.96-.26-.27-.67-.28-.99-.01-.09.07-.17.16-.25.24l-3.88 3.9c-.1.1-.2.2-.3.27l-1-1.04c.17-.15.4-.33.61-.53l5.53-5.54c.12-.12.26-.24.35-.39.2-.3.17-.62-.09-.88-.26-.25-.57-.28-.88-.07-.12.08-.22.19-.32.3-1.96 1.95-3.91 3.9-5.86 5.87-.12.11-.2.26-.28.38l-1.13-1.1c.15-.1.3-.18.41-.29l7.82-7.83c.12-.11.24-.22.32-.36.2-.31.16-.62-.1-.88a.64.64 0 0 0-.85-.08c-.13.08-.24.2-.35.32l-7.82 7.84-.35.34-.98-.99.33-.34 5.83-5.85c.1-.1.22-.2.3-.32.22-.31.23-.64-.04-.92-.28-.27-.6-.29-.92-.06-.13.1-.24.21-.35.33l-7.29 7.3c-.11.12-.19.27-.3.43l-1.02-1.12 3.48-3.48-.54-.41c-.34-.29-.7-.3-1.02 0-1.1 1.09-2.19 2.17-3.24 3.29a3.7 3.7 0 0 0-1 2.56c-.01 1.64-.61 3-1.77 4.16l-9.6 9.6-.3.3-.97-.95 7.26-7.27-.35-.38-3.63-3.64C.77 21.5.63 17.78 3.12 14.83c.05-.05.09-.11.21-.3-.65-.16-1.23-.35-1.82-.44-.55-.1-.86-.3-.85-.74 0-.42.3-.66.85-.7A3.52 3.52 0 0 0 4.86 9.3c.03-.54.28-.84.7-.85.43 0 .68.3.72.87.03.62.2 1.2.66 1.86.12-.19.2-.36.32-.48 2.89-2.91 5.83-5.77 8.67-8.73a5.88 5.88 0 0 1 8.75 0l.64.7c.4-.6.57-1.2.6-1.84.04-.53.3-.83.73-.82.4 0 .66.3.69.8a3.51 3.51 0 0 0 3.4 3.42c.5.03.8.28.8.7.01.42-.3.68-.82.7-.63.04-1.23.2-1.9.67m-1 .83c-.19.7-.37 1.28-.47 1.87-.09.54-.28.84-.7.86-.42.01-.7-.3-.72-.86a3.52 3.52 0 0 0-3.37-3.36c-.54-.03-.83-.28-.84-.7 0-.43.3-.68.87-.72.62-.04 1.2-.2 1.76-.6l-.77-.75C21.62.91 19 .91 17.04 2.86L8.2 11.73l-.33.35c.59.38 1.2.56 1.85.59.46.01.75.29.76.68 0 .4-.28.68-.73.72-2.08.17-3.31 1.42-3.49 3.48-.02.2-.14.48-.3.58-.17.12-.51.16-.67.06a.99.99 0 0 1-.4-.65 3.8 3.8 0 0 0-.62-1.87c-.14.16-.26.28-.37.42a5.23 5.23 0 0 0 .34 6.9c1.33 1.37 2.68 2.7 4.03 4.05l.23.17 1.64-1.68a4.3 4.3 0 0 0 1.31-3.1c.03-1.41.52-2.65 1.49-3.67a131.48 131.48 0 0 1 3.16-3.17 2.1 2.1 0 0 1 3-.02c.16.15.27.34.42.54l.43-.41c1.03-1.03 2.04-2.06 3.08-3.08.78-.77 1.89-.86 2.76-.25.28.2.57.37.85.56.08.03.23-.19.42-.37a2.1 2.1 0 0 1 2.97 2.98c-.19.2-.4.36-.62.55 1.6 1.12 1.6 2.27.07 4.01l.09.1c1.31.93 1.43 2.32.3 3.47l-6.08 6.1c-.8.8-1.7 1.46-2.77 1.8-2.02.6-3.17 2.26-4.58 3.56 1.86 1.89 3.62 3.8 5.5 5.56 1.52 1.4 4 .99 5.24-.83-.63-.16-1.2-.35-1.8-.44-.53-.09-.84-.28-.85-.7-.01-.43.3-.7.85-.73a3.52 3.52 0 0 0 3.36-3.38c.03-.53.28-.83.7-.83.42 0 .68.3.7.83.04.63.2 1.23.6 1.78l.33-.32 9.5-9.51c2.03-2.05 2.03-4.64 0-6.68L28.26 7.57c-.1-.12-.22-.22-.46-.45m-1.17-.93 1.24-1.28-1.24-1.25-1.27 1.26 1.27 1.27M4.3 13.37l1.25 1.26 1.25-1.27-1.25-1.25-1.25 1.26m25.14 26.6 1.23-1.28-1.24-1.25-1.27 1.26 1.28 1.26" data-name="Caminho 14"/><path d="M40.69 30.98h1.35a6.24 6.24 0 0 1-6.25 6.29V35.9a4.98 4.98 0 0 0 4.9-4.92" data-name="Caminho 15"/><path d="m37.19 43.58-.02-.16v-1.19a5.02 5.02 0 0 0 4.92-4.9h1.34c.23 3.08-2.7 6.4-6.24 6.25" data-name="Caminho 16"/><path d="M1.32 6.3H.02C-.26 3.43 2.52-.07 6.25.04v1.33a5.07 5.07 0 0 0-4.93 4.95" data-name="Caminho 17"/><path d="M12.57 1.42V2.8a5 5 0 0 0-4.9 4.9H6.33c-.23-2.8 2.34-6.29 6.24-6.28" data-name="Caminho 18"/></g><defs><clipPath id="a"><path d="M0 0h43.5v43.62H0V0z" data-name="Retângulo 8"/></clipPath></defs></svg>