<svg xmlns="http://www.w3.org/2000/svg" width="44.557" height="30.983"><g data-name="Grupo 6" clip-path="url(&quot;#a&quot;)"><path d="M44.557 27.586c-.068.235-.127.473-.203.705-.545 1.643-2.04 2.687-3.864 2.688-7.005.002-14.01 0-21.015 0-.84 0-1.682.002-2.523 0-.54-.001-.849-.242-.847-.655.002-.41.31-.649.853-.649l23.539-.001c1.414 0 2.487-.862 2.712-2.203.056-.337.008-.692.008-1.072H1.363c-.37 1.707.852 3.267 2.598 3.272 3.147.01 6.294.003 9.441.004.145 0 .294-.015.434.014.335.072.539.28.54.636.001.356-.2.565-.534.64-.125.028-.26.014-.39.014-3.104 0-6.208.002-9.312 0-2.45-.001-4.132-1.676-4.138-4.115-.001-.189-.004-.377 0-.566.02-.744.488-1.224 1.229-1.235.781-.012 1.563-.003 2.407-.003v-.579L3.64 2.205c0-1.16.591-1.953 1.612-2.163.197-.04.404-.04.606-.04C16.807 0 27.757 0 38.707 0c1.407 0 2.211.8 2.212 2.21.002 7.411 0 14.822 0 22.233v.616c.728 0 1.42.03 2.108-.008.723-.04 1.23.221 1.53.882v1.653Zm-4.942-2.542V2.308c0-.808-.195-1.002-.995-1.002H5.947c-.808 0-1.003.191-1.003.992v22.746h34.67Z" fill="#123d6f" fill-rule="evenodd" data-name="Caminho 14"/><path d="M8.066 21.8h14.629c0-.179-.005-.345 0-.512.03-.868-.034-1.752.11-2.6.372-2.173 2.303-3.765 4.51-3.805a73.763 73.763 0 0 1 3.306-.007c2.472.066 4.477 2.084 4.54 4.55.02.78.003 1.56.003 2.366h1.36v-11.26c0-.16-.007-.32.013-.478.044-.35.255-.551.605-.567.35-.016.577.17.653.512.031.14.032.288.032.432.001 3.77.002 7.542 0 11.313 0 .977-.398 1.38-1.37 1.381-9.456.002-18.912.002-28.368 0-.95 0-1.357-.405-1.358-1.35-.002-5.685-.002-11.37 0-17.056 0-1.03.457-1.477 1.497-1.477 3.452-.001 6.904.004 10.356-.006.434-.002.72.144.979.502a3.316 3.316 0 0 0 5.423.01c.27-.372.57-.514 1.018-.513 3.437.012 6.874.006 10.312.007 1.063 0 1.508.444 1.511 1.507.003.725.006 1.45-.001 2.176-.005.521-.238.81-.64.82-.419.01-.658-.286-.661-.834-.005-.766-.002-1.532-.002-2.342-.173-.011-.31-.027-.449-.027-3.22-.001-6.44.003-9.66-.008-.276 0-.443.093-.618.299-1.84 2.155-5.2 2.147-7.05.005-.124-.143-.346-.284-.523-.284-3.292-.017-6.584-.013-9.876-.012-.084 0-.168.015-.281.025V21.8Zm25.931-.004c0-.858.058-1.673-.011-2.478-.154-1.8-1.49-3.162-3.266-3.27a26.166 26.166 0 0 0-3.694.047c-1.405.115-2.383.924-2.914 2.224-.46 1.125-.194 2.307-.265 3.475h1.75c0-.602-.003-1.179 0-1.756.002-.522.207-.8.585-.804.38-.004.589.272.596.795.003.232 0 .464 0 .696v1.064h4.308c0-.654-.012-1.276.004-1.898.012-.475.385-.771.769-.628.318.118.413.379.41.695-.002.605 0 1.21 0 1.838h1.728Z" fill="#123d6f" fill-rule="evenodd" data-name="Caminho 15"/><path d="M20.091 16.98c.133.545.231 1.041.378 1.522.132.433.08.803-.248 1.115-.316.301-.69.346-1.088.19-1.276-.5-2.311-1.269-2.807-2.603-.09-.243-.236-.243-.43-.243-1.435.003-2.87.004-4.304 0-1.474-.002-2.344-.878-2.347-2.358-.003-1.653-.003-3.305 0-4.957.003-1.46.873-2.335 2.32-2.335 3-.002 6-.003 9 0 1.381 0 2.256.864 2.264 2.249.01 1.666.005 3.333.002 5-.002 1.557-.815 2.376-2.38 2.403-.086.002-.17.008-.36.017m-1.276 1.064c-.015-.194-.011-.31-.035-.422-.335-1.588.316-2.21 1.77-2.112.624.042.857-.231.858-.867.002-1.666.002-3.333 0-5 0-.66-.23-.908-.879-.91-2.985-.005-5.97-.004-8.956 0-.66.002-.883.235-.884.898-.003 1.652-.002 3.304 0 4.956 0 .725.203.93.925.931 1.507.002 3.014-.002 4.521.002.865.002 1.19.24 1.475 1.057.213.607.585 1.084 1.205 1.467" fill="#123d6f" fill-rule="evenodd" data-name="Caminho 16"/><path d="M32.314 10.505c-.032 1.904-1.569 3.371-3.491 3.333-1.815-.035-3.31-1.593-3.284-3.42a3.406 3.406 0 0 1 3.478-3.361c1.851.043 3.33 1.588 3.297 3.448m-3.37-2.27a2.209 2.209 0 0 0-2.231 2.182 2.235 2.235 0 0 0 2.205 2.263c1.203.01 2.22-.987 2.235-2.193a2.217 2.217 0 0 0-2.209-2.252" fill="#123d6f" fill-rule="evenodd" data-name="Caminho 17"/><path d="M22.269 3.822a.65.65 0 0 1-.63-.682.64.64 0 1 1 1.28.063.647.647 0 0 1-.65.62" fill="#123d6f" fill-rule="evenodd" data-name="Caminho 18"/><path d="M16 13.927c-.928 0-1.856.002-2.784-.001-.511-.003-.793-.245-.784-.662.007-.398.283-.64.767-.64 1.9-.005 3.798-.005 5.697 0 .474 0 .765.257.77.645.006.4-.295.655-.796.657-.957.003-1.914 0-2.87 0" fill="#123d6f" fill-rule="evenodd" data-name="Caminho 19"/><path d="M13.505 10.349c.172 0 .347-.014.518.003.352.035.552.259.577.594.025.34-.157.612-.496.658-.381.052-.779.057-1.16.007-.357-.047-.542-.317-.506-.688.033-.35.245-.542.591-.574.158-.014.317-.002.476-.002v.002" fill="#123d6f" fill-rule="evenodd" data-name="Caminho 20"/></g><defs><clipPath id="a"><path d="M0 0h44.557v30.983H0V0z" data-name="Retângulo 8"/></clipPath></defs></svg>