<svg xmlns="http://www.w3.org/2000/svg" width="42.3" height="52.1" viewBox="463.8 1257.7 42.3 52.1"><g data-name="icon"><g fill="#2faaa8" fill-rule="evenodd" clip-path="url(&quot;#a&quot;)" data-name="Grupo 1" transform="translate(464 1258)"><path d="M21.3-.3 24.6 1a44 44 0 0 0 14.9 2.6c1.7 0 2.7 1 2.7 2.7v18c-.2 9.2-4 16.4-11.8 21.5l-8.8 5.6-.3.3h-.6l-4.4-2.9c-2.1-1.4-4.4-2.7-6.4-4.2-5.7-4.3-9-10-9.9-17.2a25.5 25.5 0 0 1-.2-3V6.3c0-1.7 1-2.6 2.7-2.7A44.4 44.4 0 0 0 20.2 0l.5-.3h.6ZM40.5 16V6.5c0-1-.2-1-1-1.1-2.3-.2-4.6-.3-6.8-.6-4-.5-7.7-1.7-11.3-3.2a1 1 0 0 0-.9 0 45.8 45.8 0 0 1-18 3.8c-.8 0-1 .2-1 1v18a22.5 22.5 0 0 0 9.2 18.8c3.2 2.4 6.7 4.4 10 6.6h.6c3-2 6-3.7 8.9-5.7a23 23 0 0 0 10.3-19.3v-8.7" data-name="Caminho 2"/><path d="M35.8 10.4a50.8 50.8 0 0 1-10.8-2 58.7 58.7 0 0 1-1.5-.6c-.6-.1-.8-.5-.7-1 .2-.5.6-.7 1.2-.5 2 .5 3.9 1.2 5.9 1.6l6.6 1c.7 0 1 .3 1 1v15.5c-.3 7-3.4 12.5-9.3 16.5-.5.4-1 .3-1.3-.1-.2-.4 0-.9.4-1.2A18.4 18.4 0 0 0 35.8 25V10.4" data-name="Caminho 3"/><path d="M6.5 10.6v14.1c0 6.7 2.9 12 8.4 15.8l.5.5c.2.3.1.7-.2 1-.3.2-.7.2-1 0l-3-2.4c-4.2-4-6.3-9-6.3-14.7v-15c0-.8.2-1 1-1 4.2-.4 8.3-1.2 12.3-2.6.4 0 .7-.2 1 .1.2.2.4.6.3.8-.1.2-.4.5-.7.6L14 9.2l-7.4 1.4" data-name="Caminho 4"/><path d="m19.5 27.3 4.6-5.1 2-2.3c.5-.4.9-.5 1.3-.2.4.4.4.9 0 1.3a5621.4 5621.4 0 0 1-7.1 7.9c-.5.5-1 .5-1.5 0a797.5 797.5 0 0 1-3.8-3.8c-.4-.4-.5-1-.1-1.3.4-.3.8-.3 1.3.2l3.3 3.3" data-name="Caminho 5"/></g></g><defs><clipPath id="a"><path d="M0 0h42.3v52H0V0z" data-name="Retângulo 3"/></clipPath></defs></svg>