<svg xmlns="http://www.w3.org/2000/svg" width="33.43" height="44.48" viewBox="824.17 1926.31 33.43 44.48"><g data-name="icon 1"><g fill="#2faaa8" fill-rule="evenodd" clip-path="url(&quot;#a&quot;)" data-name="Grupo 4" transform="translate(824.17 1926.31)"><path d="M3.31 44.48a4.09 4.09 0 0 1-2.37-1.26A3.94 3.94 0 0 1 0 40.5V3.9C0 2.32.67 1.09 2.12.4A4.3 4.3 0 0 1 3.88.03C10.25-.01 16.62.01 22.98 0c.42 0 .76.14 1.05.43a5802 5802 0 0 0 8.95 8.94c.31.3.45.65.45 1.08V40.6c0 2.04-1.38 3.6-3.2 3.84-.04 0-.07.03-.11.05H3.3ZM22.28 1.85H4.01c-1.43 0-2.16.73-2.16 2.18v36.43c0 1.44.73 2.17 2.17 2.17H29.4c1.46 0 2.18-.72 2.18-2.2V11.13c-1.83 0-3.6.03-5.37-.01a4.65 4.65 0 0 1-1.8-.39c-1.44-.67-2.1-1.89-2.11-3.46-.02-1.78 0-3.56 0-5.4m7.8 7.41-5.93-5.92c0 1.37-.05 2.8.02 4.22.04 1.01.76 1.66 1.8 1.69 1.38.04 2.75.01 4.11.01" data-name="Caminho 10"/><path d="M18.6 18.24c-.02 1.16-.42 2.22-.72 3.3-.14.5-.32.96-.45 1.45a.58.58 0 0 0 .1.46 23.28 23.28 0 0 0 3.71 3.58c.14.1.37.13.56.12 1.12-.07 2.24-.2 3.37-.22.48 0 .98.13 1.43.3.94.38 1.3 1.03 1.25 2.06-.06 1-.6 1.71-1.5 2.03-1.19.42-2.21.03-3.18-.62-.67-.44-1.31-.9-1.98-1.34-.13-.1-.35-.16-.5-.12-1.9.5-3.8 1-5.7 1.53a1.1 1.1 0 0 0-.59.5 14.73 14.73 0 0 1-3.7 4.76c-1.03.82-2.14 1.33-3.5.83-1.83-.68-2.2-2.56-.7-3.8.68-.56 1.45-1.02 2.23-1.42 1.37-.72 2.79-1.36 4.18-2.04.16-.08.35-.24.4-.4.64-1.78 1.27-3.57 1.87-5.36.05-.14-.05-.35-.13-.5-.55-.96-1.17-1.9-1.65-2.89a5.14 5.14 0 0 1-.13-3.73c.42-1.45 1.68-2.12 3.24-1.84 1.05.19 1.63.84 1.85 1.82.12.5.16 1.03.23 1.54m-2.61 3.16c.2-.67.44-1.26.53-1.87.11-.69.14-1.4.12-2.1-.02-.61-.27-.77-.88-.74-.43.02-.65.23-.78.78-.35 1.46.17 2.7 1.01 3.93m2.8 6.32-2.12-2.39-1.07 3.23 3.2-.84m-7.24 4.68-.08-.12c-1.14.63-2.28 1.24-3.4 1.87-.17.1-.3.24-.43.38-.28.3-.24.43.16.58.42.16.82.1 1.2-.14a9.32 9.32 0 0 0 2.55-2.57m12.2-3.7-.04.15c.28.18.54.39.84.52.3.13.64.2.98.25.25.03.49-.13.44-.4-.02-.14-.23-.34-.38-.36-.61-.09-1.23-.1-1.84-.15" data-name="Caminho 11"/></g></g><defs><clipPath id="a"><path d="M0 0h33.43v44.48H0V0z" data-name="Retângulo 6"/></clipPath></defs></svg>