<svg xmlns="http://www.w3.org/2000/svg" width="45.5" height="41.34" viewBox="979.48 2024.97 45.5 41.34"><g data-name="icon 3"><g fill="#2faaa8" fill-rule="evenodd" clip-path="url(&quot;#a&quot;)" data-name="Grupo 8" transform="translate(979.48 2024.97)"><path d="M38.6 20.95c-.91.18-1.82.42-2.73.53-2.64.32-5.04-.37-7.25-1.83a1.5 1.5 0 0 0-.78-.24L7.59 19.4c-1.57 0-2.75-.9-3.1-2.35a3 3 0 0 1 2.7-3.67H24.22l-.29-3.16-.42-.02H6.07c-2.95 0-4.97 2.04-4.97 5V19.88c-.05.31-.24.5-.55.5-.32 0-.53-.2-.53-.52.02-1.95-.09-3.91.1-5.84A5.64 5.64 0 0 1 5.5 9.13c1.95-.06 3.9-.02 5.85-.02H24.1l.16-.67a10.74 10.74 0 0 1 21.08.53c.77 4.37-1.3 8.84-5.16 11.08-.38.22-.5.46-.5.88.03 4.81.02 9.63.02 14.44a5.83 5.83 0 0 1-4.86 5.86c-.44.08-.9.1-1.36.1-9.09 0-18.18-.03-27.27.01a5.94 5.94 0 0 1-6.06-4.63 6.53 6.53 0 0 1-.13-1.26V24.33c0-.1-.04-.25.01-.31.16-.17.35-.43.53-.43.18 0 .39.26.52.44.07.1.02.3.02.45v10.94a4.73 4.73 0 0 0 3.86 4.72c.4.08.84.1 1.26.1h27.27c2.4 0 4.17-1.18 4.86-3.26.15-.48.25-1 .25-1.51.02-4.78.01-9.57.01-14.35v-.17m-3.87-.52a9.65 9.65 0 0 0 9.67-9.49 9.65 9.65 0 0 0-19.29-.48 9.62 9.62 0 0 0 9.62 9.97m-7.7-2.12a10.4 10.4 0 0 1-2.22-3.4c-.13-.33-.3-.46-.68-.46-5.48.02-10.96.01-16.44.01-.15 0-.3 0-.45.02a1.9 1.9 0 0 0-1.65 2.31c.22.96.96 1.52 2.03 1.52h19.41Z" data-name="Caminho 19"/><path d="M19.9 31.02h12.37a3.01 3.01 0 0 1 3.08 3.03 3 3 0 0 1-2.64 2.98 6.04 6.04 0 0 1-.72.04H7.72c-.97 0-1.84-.21-2.5-.94a2.87 2.87 0 0 1-.61-3.23 2.86 2.86 0 0 1 2.8-1.87c4.16-.02 8.33 0 12.5 0m-.05 1.08H7.44a1.92 1.92 0 0 0-1.9 2.43c.24.93 1 1.44 2.13 1.44h24.37c.21 0 .43-.01.63-.05.77-.15 1.28-.6 1.5-1.35.38-1.28-.56-2.46-1.95-2.46H19.86" data-name="Caminho 20"/><path d="M19.85 28.22H7.53c-1.65 0-2.83-.97-3.12-2.52a3.02 3.02 0 0 1 2.73-3.5h25.09a3 3 0 1 1-.02 6.02H19.85m.02-4.93H7.37a1.91 1.91 0 0 0-1.82 2.5c.25.82.97 1.34 1.93 1.34a33976.27 33976.27 0 0 0 25 0 1.91 1.91 0 0 0 1.69-1.37 1.91 1.91 0 0 0-1.9-2.47h-12.4" data-name="Caminho 21"/><path d="M1.1 21.98c0 .67-.17.96-.57.94-.37-.02-.52-.29-.52-.94v-.41c.03-.33.2-.54.55-.54.34 0 .51.2.54.54v.4" data-name="Caminho 22"/><path d="M27.17 10.55c.03-.77.5-1.53 1.42-1.94a2.28 2.28 0 0 1 2.61.43c.5.45.95.94 1.42 1.4.46.47.48.47.93.02l4.58-4.6a2.35 2.35 0 0 1 2.53-.65 2.4 2.4 0 0 1 1.1 3.84l-.34.36-5.96 5.96c-1.49 1.49-3.26 1.48-4.75 0l-2.78-2.79c-.5-.5-.77-1.08-.76-2.03m1.1.48c.08.15.2.51.43.76.98 1.03 1.98 2.03 3 3.02.8.77 1.95.8 2.73.03 2.16-2.12 4.28-4.27 6.41-6.41.33-.33.47-.74.36-1.2-.12-.5-.41-.85-.9-1-.55-.15-1 0-1.4.4a2105.15 2105.15 0 0 1-4.71 4.72c-.73.73-1.48.72-2.22 0-.49-.5-.97-1-1.48-1.47-.42-.4-.93-.5-1.46-.25-.5.24-.74.65-.77 1.4" data-name="Caminho 23"/></g></g><defs><clipPath id="a"><path d="M0 0h45.5v41.34H0V0z" data-name="Retângulo 9"/></clipPath></defs></svg>